<?xml version="1.0" standalone="no"?><!DOCTYPE svg PUBLIC "-//W3C//DTD SVG 1.1//EN" "http://www.w3.org/Graphics/SVG/1.1/DTD/svg11.dtd"><svg t="1592667798538" class="icon" viewBox="0 0 1024 1024" version="1.1" xmlns="http://www.w3.org/2000/svg" p-id="3424" xmlns:xlink="http://www.w3.org/1999/xlink" width="48" height="48"><defs><style type="text/css"></style></defs><path d="M391.041943 199.979076a73.623249 73.623249 0 1 0-73.62325-73.623249A73.623249 73.623249 0 0 0 391.041943 199.979076z" fill="#AEC9FF" p-id="3425"></path><path d="M740.410149 306.039407L562.869202 433.109445a181.826213 181.826213 0 0 1-47.614066-128.677013L660.120931 46.066609a29.758791 29.758791 0 0 0-8.808602-39.043534L648.812591 5.4161A29.758791 29.758791 0 0 0 608.043047 11.903516L444.786319 231.582912 97.20364 232.11857a29.758791 29.758791 0 0 0-3.69009 59.517582l235.451554 30.473002a454.297704 454.297704 0 0 0 67.254868 230.571113L215.465075 682.071491c26.128219 11.010753 182.540424 68.207149 356.748387-56.541703s170.33932-291.279047 168.196687-319.490381z" fill="#3366FF" p-id="3426"></path><path d="M928.545226 511.851206h-227.773786a435.073525 435.073525 0 0 1-109.274281 118.439988l341.868992-55.767974a29.758791 29.758791 0 0 0 24.937866-29.401686V541.609997a30.056379 30.056379 0 0 0-29.758791-29.758791z m-476.973902 482.390003a29.758791 29.758791 0 0 0 29.758791 29.758791h2.44022a29.758791 29.758791 0 0 0 29.342168-24.818832l62.79105-357.581633a445.846207 445.846207 0 0 1-125.879687 61.838768z" fill="#AEC9FF" p-id="3427"></path></svg>