<?xml version="1.0" standalone="no"?><!DOCTYPE svg PUBLIC "-//W3C//DTD SVG 1.1//EN" "http://www.w3.org/Graphics/SVG/1.1/DTD/svg11.dtd"><svg t="1592667460434" class="icon" viewBox="0 0 1024 1024" version="1.1" xmlns="http://www.w3.org/2000/svg" p-id="2220" width="48" height="48" xmlns:xlink="http://www.w3.org/1999/xlink"><defs><style type="text/css"></style></defs><path d="M512 512m-512 0a512 512 0 1 0 1024 0 512 512 0 1 0-1024 0Z" fill="#FFFFFF" p-id="2221"></path><path d="M755.2 563.2c-12.8 0-25.6 12.8-32 25.6-19.2 64-70.4 115.2-134.4 134.4-12.8 6.4-19.2 12.8-25.6 25.6s0 25.6 12.8 32c6.4 6.4 19.2 12.8 32 6.4 83.2-25.6 153.6-96 179.2-179.2 6.4-12.8 0-19.2-6.4-32 0-6.4-12.8-12.8-25.6-12.8zM448 307.2c12.8-6.4 19.2-12.8 25.6-25.6 0-12.8 0-25.6-12.8-32-12.8-6.4-25.6-6.4-32-6.4-89.6 32-153.6 96-185.6 179.2 0 19.2 6.4 38.4 25.6 44.8s38.4 0 44.8-19.2c19.2-64 64-115.2 134.4-140.8z" fill="#FA7829" p-id="2222"></path><path d="M512 64C262.4 64 64 262.4 64 512s198.4 448 448 448 448-198.4 448-448-204.8-448-448-448z m0 793.6c-128 0-243.2-70.4-307.2-179.2s-51.2-249.6 19.2-358.4 192-166.4 320-153.6v211.2c-51.2-12.8-102.4 6.4-128 51.2-32 38.4-32 89.6 0 128 25.6 38.4 76.8 57.6 121.6 44.8s83.2-51.2 89.6-102.4V185.6c160 57.6 249.6 217.6 224 384s-172.8 288-339.2 288z" fill="#FA7829" p-id="2223"></path></svg>